<mxfile host="app.diagrams.net" modified="2023-10-18T17:26:24.484Z" agent="Mozilla/5.0 (Windows NT 10.0; Win64; x64) AppleWebKit/537.36 (KHTML, like Gecko) Chrome/117.0.0.0 Safari/537.36 OPR/103.0.0.0" etag="cF3lgjUtr3lN-l67qNPL" version="22.0.4" type="github">
  <diagram name="Page-1" id="c4acf3e9-155e-7222-9cf6-157b1a14988f">
    <mxGraphModel dx="1257" dy="713" grid="1" gridSize="10" guides="1" tooltips="1" connect="1" arrows="1" fold="1" page="1" pageScale="1" pageWidth="850" pageHeight="1100" background="none" math="0" shadow="0">
      <root>
        <mxCell id="0" />
        <mxCell id="1" parent="0" />
        <mxCell id="5d2195bd80daf111-26" style="edgeStyle=orthogonalEdgeStyle;rounded=0;html=1;dashed=1;labelBackgroundColor=none;startFill=0;endArrow=open;endFill=0;endSize=10;fontFamily=Verdana;fontSize=10;" parent="1" source="5d2195bd80daf111-15" edge="1">
          <mxGeometry relative="1" as="geometry">
            <Array as="points" />
            <mxPoint x="685" y="300" as="targetPoint" />
          </mxGeometry>
        </mxCell>
        <mxCell id="981E51eiHKlsOoyIhUvD-2" value="Authentication" style="swimlane;fontStyle=0;childLayout=stackLayout;horizontal=1;startSize=30;horizontalStack=0;resizeParent=1;resizeParentMax=0;resizeLast=0;collapsible=1;marginBottom=0;whiteSpace=wrap;html=1;" vertex="1" parent="1">
          <mxGeometry x="355" y="270" width="140" height="120" as="geometry" />
        </mxCell>
        <mxCell id="981E51eiHKlsOoyIhUvD-4" value="token" style="text;strokeColor=default;fillColor=none;align=left;verticalAlign=middle;spacingLeft=4;spacingRight=4;overflow=hidden;points=[[0,0.5],[1,0.5]];portConstraint=eastwest;rotatable=0;whiteSpace=wrap;html=1;" vertex="1" parent="981E51eiHKlsOoyIhUvD-2">
          <mxGeometry y="30" width="140" height="30" as="geometry" />
        </mxCell>
        <mxCell id="981E51eiHKlsOoyIhUvD-158" value="ClientOAuth2" style="text;strokeColor=none;fillColor=none;align=left;verticalAlign=middle;spacingLeft=4;spacingRight=4;overflow=hidden;points=[[0,0.5],[1,0.5]];portConstraint=eastwest;rotatable=0;whiteSpace=wrap;html=1;" vertex="1" parent="981E51eiHKlsOoyIhUvD-2">
          <mxGeometry y="60" width="140" height="30" as="geometry" />
        </mxCell>
        <mxCell id="981E51eiHKlsOoyIhUvD-159" value="AccountsApiFp" style="text;strokeColor=none;fillColor=none;align=left;verticalAlign=middle;spacingLeft=4;spacingRight=4;overflow=hidden;points=[[0,0.5],[1,0.5]];portConstraint=eastwest;rotatable=0;whiteSpace=wrap;html=1;" vertex="1" parent="981E51eiHKlsOoyIhUvD-2">
          <mxGeometry y="90" width="140" height="30" as="geometry" />
        </mxCell>
        <mxCell id="981E51eiHKlsOoyIhUvD-5" value="" style="text;strokeColor=none;fillColor=none;align=left;verticalAlign=middle;spacingLeft=4;spacingRight=4;overflow=hidden;points=[[0,0.5],[1,0.5]];portConstraint=eastwest;rotatable=0;whiteSpace=wrap;html=1;" vertex="1" parent="981E51eiHKlsOoyIhUvD-2">
          <mxGeometry y="120" width="140" as="geometry" />
        </mxCell>
        <mxCell id="981E51eiHKlsOoyIhUvD-74" style="edgeStyle=orthogonalEdgeStyle;rounded=0;orthogonalLoop=1;jettySize=auto;html=1;exitX=1;exitY=0;exitDx=0;exitDy=0;dashed=1;entryX=0.351;entryY=1.067;entryDx=0;entryDy=0;entryPerimeter=0;endArrow=none;endFill=0;" edge="1" parent="1" source="981E51eiHKlsOoyIhUvD-8" target="981E51eiHKlsOoyIhUvD-78">
          <mxGeometry relative="1" as="geometry">
            <mxPoint x="600" y="430" as="targetPoint" />
            <Array as="points">
              <mxPoint x="470" y="481" />
              <mxPoint x="601" y="481" />
              <mxPoint x="601" y="430" />
              <mxPoint x="599" y="430" />
            </Array>
          </mxGeometry>
        </mxCell>
        <mxCell id="981E51eiHKlsOoyIhUvD-8" value="Account" style="swimlane;fontStyle=0;childLayout=stackLayout;horizontal=1;startSize=30;horizontalStack=0;resizeParent=1;resizeParentMax=0;resizeLast=0;collapsible=1;marginBottom=0;whiteSpace=wrap;html=1;" vertex="1" parent="1">
          <mxGeometry x="330" y="530" width="140" height="90" as="geometry" />
        </mxCell>
        <mxCell id="981E51eiHKlsOoyIhUvD-9" value="account_type: AccType" style="text;strokeColor=none;fillColor=none;align=left;verticalAlign=middle;spacingLeft=4;spacingRight=4;overflow=hidden;points=[[0,0.5],[1,0.5]];portConstraint=eastwest;rotatable=0;whiteSpace=wrap;html=1;" vertex="1" parent="981E51eiHKlsOoyIhUvD-8">
          <mxGeometry y="30" width="140" height="30" as="geometry" />
        </mxCell>
        <mxCell id="981E51eiHKlsOoyIhUvD-79" value="role: string" style="text;strokeColor=none;fillColor=none;align=left;verticalAlign=middle;spacingLeft=4;spacingRight=4;overflow=hidden;points=[[0,0.5],[1,0.5]];portConstraint=eastwest;rotatable=0;whiteSpace=wrap;html=1;" vertex="1" parent="981E51eiHKlsOoyIhUvD-8">
          <mxGeometry y="60" width="140" height="30" as="geometry" />
        </mxCell>
        <mxCell id="981E51eiHKlsOoyIhUvD-12" value="" style="text;strokeColor=none;fillColor=none;align=left;verticalAlign=middle;spacingLeft=4;spacingRight=4;overflow=hidden;points=[[0,0.5],[1,0.5]];portConstraint=eastwest;rotatable=0;whiteSpace=wrap;html=1;" vertex="1" parent="981E51eiHKlsOoyIhUvD-8">
          <mxGeometry y="90" width="140" as="geometry" />
        </mxCell>
        <mxCell id="981E51eiHKlsOoyIhUvD-25" style="edgeStyle=orthogonalEdgeStyle;rounded=0;orthogonalLoop=1;jettySize=auto;html=1;entryX=0.524;entryY=0;entryDx=0;entryDy=0;entryPerimeter=0;endArrow=none;endFill=0;startArrow=diamondThin;startFill=1;" edge="1" parent="1" source="981E51eiHKlsOoyIhUvD-8" target="981E51eiHKlsOoyIhUvD-5">
          <mxGeometry relative="1" as="geometry">
            <Array as="points">
              <mxPoint x="424" y="390" />
            </Array>
          </mxGeometry>
        </mxCell>
        <mxCell id="981E51eiHKlsOoyIhUvD-27" value="Number" style="swimlane;fontStyle=0;childLayout=stackLayout;horizontal=1;startSize=30;horizontalStack=0;resizeParent=1;resizeParentMax=0;resizeLast=0;collapsible=1;marginBottom=0;whiteSpace=wrap;html=1;strokeColor=default;" vertex="1" parent="1">
          <mxGeometry x="590" y="500" width="150" height="210" as="geometry" />
        </mxCell>
        <mxCell id="981E51eiHKlsOoyIhUvD-28" value="acquired_date: date" style="text;strokeColor=none;fillColor=none;align=left;verticalAlign=middle;spacingLeft=4;spacingRight=4;overflow=hidden;points=[[0,0.5],[1,0.5]];portConstraint=eastwest;rotatable=0;whiteSpace=wrap;html=1;" vertex="1" parent="981E51eiHKlsOoyIhUvD-27">
          <mxGeometry y="30" width="150" height="30" as="geometry" />
        </mxCell>
        <mxCell id="981E51eiHKlsOoyIhUvD-35" value="expiration_date: date" style="text;strokeColor=none;fillColor=none;align=left;verticalAlign=middle;spacingLeft=4;spacingRight=4;overflow=hidden;points=[[0,0.5],[1,0.5]];portConstraint=eastwest;rotatable=0;whiteSpace=wrap;html=1;" vertex="1" parent="981E51eiHKlsOoyIhUvD-27">
          <mxGeometry y="60" width="150" height="30" as="geometry" />
        </mxCell>
        <mxCell id="981E51eiHKlsOoyIhUvD-29" value="is_canceled: bool" style="text;strokeColor=none;fillColor=none;align=left;verticalAlign=middle;spacingLeft=4;spacingRight=4;overflow=hidden;points=[[0,0.5],[1,0.5]];portConstraint=eastwest;rotatable=0;whiteSpace=wrap;html=1;rounded=0;" vertex="1" parent="981E51eiHKlsOoyIhUvD-27">
          <mxGeometry y="90" width="150" height="30" as="geometry" />
        </mxCell>
        <mxCell id="981E51eiHKlsOoyIhUvD-30" value="notifications: object[]" style="text;strokeColor=none;fillColor=none;align=left;verticalAlign=middle;spacingLeft=4;spacingRight=4;overflow=hidden;points=[[0,0.5],[1,0.5]];portConstraint=eastwest;rotatable=0;whiteSpace=wrap;html=1;" vertex="1" parent="981E51eiHKlsOoyIhUvD-27">
          <mxGeometry y="120" width="150" height="30" as="geometry" />
        </mxCell>
        <mxCell id="981E51eiHKlsOoyIhUvD-37" value="status: enum(&quot;act&quot;,&quot;dea&quot;)" style="text;strokeColor=none;fillColor=none;align=left;verticalAlign=middle;spacingLeft=4;spacingRight=4;overflow=hidden;points=[[0,0.5],[1,0.5]];portConstraint=eastwest;rotatable=0;whiteSpace=wrap;html=1;" vertex="1" parent="981E51eiHKlsOoyIhUvD-27">
          <mxGeometry y="150" width="150" height="30" as="geometry" />
        </mxCell>
        <mxCell id="981E51eiHKlsOoyIhUvD-80" value="revoke(userId, number)" style="text;strokeColor=default;fillColor=none;align=left;verticalAlign=middle;spacingLeft=4;spacingRight=4;overflow=hidden;points=[[0,0.5],[1,0.5]];portConstraint=eastwest;rotatable=0;whiteSpace=wrap;html=1;" vertex="1" parent="981E51eiHKlsOoyIhUvD-27">
          <mxGeometry y="180" width="150" height="30" as="geometry" />
        </mxCell>
        <mxCell id="981E51eiHKlsOoyIhUvD-31" value="" style="text;strokeColor=none;fillColor=none;align=left;verticalAlign=middle;spacingLeft=4;spacingRight=4;overflow=hidden;points=[[0,0.5],[1,0.5]];portConstraint=eastwest;rotatable=0;whiteSpace=wrap;html=1;" vertex="1" parent="981E51eiHKlsOoyIhUvD-27">
          <mxGeometry y="210" width="150" as="geometry" />
        </mxCell>
        <mxCell id="981E51eiHKlsOoyIhUvD-33" style="edgeStyle=orthogonalEdgeStyle;rounded=0;orthogonalLoop=1;jettySize=auto;html=1;endArrow=diamondThin;endFill=1;startArrow=none;startFill=0;" edge="1" parent="1" source="981E51eiHKlsOoyIhUvD-29">
          <mxGeometry relative="1" as="geometry">
            <mxPoint x="470" y="605" as="targetPoint" />
          </mxGeometry>
        </mxCell>
        <mxCell id="981E51eiHKlsOoyIhUvD-34" value="1..*" style="text;html=1;align=center;verticalAlign=middle;resizable=0;points=[];autosize=1;strokeColor=none;fillColor=none;" vertex="1" parent="1">
          <mxGeometry x="550" y="580" width="40" height="30" as="geometry" />
        </mxCell>
        <mxCell id="981E51eiHKlsOoyIhUvD-38" value="Fax" style="swimlane;fontStyle=0;childLayout=stackLayout;horizontal=1;startSize=30;horizontalStack=0;resizeParent=1;resizeParentMax=0;resizeLast=0;collapsible=1;marginBottom=0;whiteSpace=wrap;html=1;" vertex="1" parent="1">
          <mxGeometry x="325" y="720" width="150" height="180" as="geometry" />
        </mxCell>
        <mxCell id="981E51eiHKlsOoyIhUvD-42" value="duration: number" style="text;strokeColor=none;fillColor=none;align=left;verticalAlign=middle;spacingLeft=4;spacingRight=4;overflow=hidden;points=[[0,0.5],[1,0.5]];portConstraint=eastwest;rotatable=0;whiteSpace=wrap;html=1;" vertex="1" parent="981E51eiHKlsOoyIhUvD-38">
          <mxGeometry y="30" width="150" height="30" as="geometry" />
        </mxCell>
        <mxCell id="981E51eiHKlsOoyIhUvD-82" value="pages: number" style="text;strokeColor=none;fillColor=none;align=left;verticalAlign=middle;spacingLeft=4;spacingRight=4;overflow=hidden;points=[[0,0.5],[1,0.5]];portConstraint=eastwest;rotatable=0;whiteSpace=wrap;html=1;" vertex="1" parent="981E51eiHKlsOoyIhUvD-38">
          <mxGeometry y="60" width="150" height="30" as="geometry" />
        </mxCell>
        <mxCell id="981E51eiHKlsOoyIhUvD-39" value="GET(userId, faxId)" style="text;strokeColor=none;fillColor=none;align=left;verticalAlign=middle;spacingLeft=4;spacingRight=4;overflow=hidden;points=[[0,0.5],[1,0.5]];portConstraint=eastwest;rotatable=0;whiteSpace=wrap;html=1;" vertex="1" parent="981E51eiHKlsOoyIhUvD-38">
          <mxGeometry y="90" width="150" height="30" as="geometry" />
        </mxCell>
        <mxCell id="981E51eiHKlsOoyIhUvD-40" value="PUT(userId, faxId)" style="text;strokeColor=none;fillColor=none;align=left;verticalAlign=middle;spacingLeft=4;spacingRight=4;overflow=hidden;points=[[0,0.5],[1,0.5]];portConstraint=eastwest;rotatable=0;whiteSpace=wrap;html=1;" vertex="1" parent="981E51eiHKlsOoyIhUvD-38">
          <mxGeometry y="120" width="150" height="30" as="geometry" />
        </mxCell>
        <mxCell id="981E51eiHKlsOoyIhUvD-41" value="DELETE(userId, faxId)" style="text;strokeColor=none;fillColor=none;align=left;verticalAlign=middle;spacingLeft=4;spacingRight=4;overflow=hidden;points=[[0,0.5],[1,0.5]];portConstraint=eastwest;rotatable=0;whiteSpace=wrap;html=1;rounded=0;" vertex="1" parent="981E51eiHKlsOoyIhUvD-38">
          <mxGeometry y="150" width="150" height="30" as="geometry" />
        </mxCell>
        <mxCell id="981E51eiHKlsOoyIhUvD-44" value="" style="text;strokeColor=none;fillColor=none;align=left;verticalAlign=middle;spacingLeft=4;spacingRight=4;overflow=hidden;points=[[0,0.5],[1,0.5]];portConstraint=eastwest;rotatable=0;whiteSpace=wrap;html=1;" vertex="1" parent="981E51eiHKlsOoyIhUvD-38">
          <mxGeometry y="180" width="150" as="geometry" />
        </mxCell>
        <mxCell id="981E51eiHKlsOoyIhUvD-83" value="" style="endArrow=none;html=1;rounded=0;entryX=0.993;entryY=1.104;entryDx=0;entryDy=0;entryPerimeter=0;" edge="1" parent="981E51eiHKlsOoyIhUvD-38" source="981E51eiHKlsOoyIhUvD-39" target="981E51eiHKlsOoyIhUvD-82">
          <mxGeometry width="50" height="50" relative="1" as="geometry">
            <mxPoint x="65" y="130" as="sourcePoint" />
            <mxPoint x="115" y="80" as="targetPoint" />
          </mxGeometry>
        </mxCell>
        <mxCell id="981E51eiHKlsOoyIhUvD-84" value="" style="endArrow=none;html=1;rounded=0;exitX=0.006;exitY=0;exitDx=0;exitDy=0;exitPerimeter=0;entryX=0.993;entryY=0.004;entryDx=0;entryDy=0;entryPerimeter=0;" edge="1" parent="981E51eiHKlsOoyIhUvD-38" source="981E51eiHKlsOoyIhUvD-39" target="981E51eiHKlsOoyIhUvD-39">
          <mxGeometry width="50" height="50" relative="1" as="geometry">
            <mxPoint x="495" y="170" as="sourcePoint" />
            <mxPoint x="145" y="90" as="targetPoint" />
            <Array as="points" />
          </mxGeometry>
        </mxCell>
        <mxCell id="981E51eiHKlsOoyIhUvD-46" style="edgeStyle=orthogonalEdgeStyle;rounded=0;orthogonalLoop=1;jettySize=auto;html=1;endArrow=diamondThin;endFill=1;startArrow=none;startFill=0;exitX=0.5;exitY=0;exitDx=0;exitDy=0;entryX=0;entryY=0.5;entryDx=0;entryDy=0;" edge="1" parent="1" source="981E51eiHKlsOoyIhUvD-38" target="981E51eiHKlsOoyIhUvD-12">
          <mxGeometry relative="1" as="geometry">
            <mxPoint x="600" y="615" as="sourcePoint" />
            <mxPoint x="480" y="615" as="targetPoint" />
          </mxGeometry>
        </mxCell>
        <mxCell id="981E51eiHKlsOoyIhUvD-47" value="1..*" style="text;html=1;align=center;verticalAlign=middle;resizable=0;points=[];autosize=1;strokeColor=none;fillColor=none;" vertex="1" parent="1">
          <mxGeometry x="400" y="690" width="40" height="30" as="geometry" />
        </mxCell>
        <mxCell id="981E51eiHKlsOoyIhUvD-89" style="edgeStyle=orthogonalEdgeStyle;rounded=0;orthogonalLoop=1;jettySize=auto;html=1;endArrow=diamondThin;endFill=1;entryX=0;entryY=0.5;entryDx=0;entryDy=0;" edge="1" parent="1" source="981E51eiHKlsOoyIhUvD-48" target="981E51eiHKlsOoyIhUvD-42">
          <mxGeometry relative="1" as="geometry">
            <mxPoint x="400" y="680" as="targetPoint" />
          </mxGeometry>
        </mxCell>
        <mxCell id="981E51eiHKlsOoyIhUvD-94" style="edgeStyle=orthogonalEdgeStyle;rounded=0;orthogonalLoop=1;jettySize=auto;html=1;entryX=0;entryY=0.5;entryDx=0;entryDy=0;dashed=1;endArrow=none;endFill=0;" edge="1" parent="1" source="981E51eiHKlsOoyIhUvD-48" target="981E51eiHKlsOoyIhUvD-93">
          <mxGeometry relative="1" as="geometry" />
        </mxCell>
        <mxCell id="981E51eiHKlsOoyIhUvD-48" value="File" style="swimlane;fontStyle=0;childLayout=stackLayout;horizontal=1;startSize=30;horizontalStack=0;resizeParent=1;resizeParentMax=0;resizeLast=0;collapsible=1;marginBottom=0;whiteSpace=wrap;html=1;" vertex="1" parent="1">
          <mxGeometry x="50" y="590" width="150" height="120" as="geometry" />
        </mxCell>
        <mxCell id="981E51eiHKlsOoyIhUvD-49" value="format: FileType" style="text;strokeColor=none;fillColor=none;align=left;verticalAlign=middle;spacingLeft=4;spacingRight=4;overflow=hidden;points=[[0,0.5],[1,0.5]];portConstraint=eastwest;rotatable=0;whiteSpace=wrap;html=1;" vertex="1" parent="981E51eiHKlsOoyIhUvD-48">
          <mxGeometry y="30" width="150" height="30" as="geometry" />
        </mxCell>
        <mxCell id="981E51eiHKlsOoyIhUvD-88" value="" style="endArrow=none;html=1;rounded=0;exitX=0.006;exitY=0;exitDx=0;exitDy=0;exitPerimeter=0;entryX=0.993;entryY=0.004;entryDx=0;entryDy=0;entryPerimeter=0;" edge="1" parent="981E51eiHKlsOoyIhUvD-48">
          <mxGeometry width="50" height="50" relative="1" as="geometry">
            <mxPoint x="1" y="60" as="sourcePoint" />
            <mxPoint x="149" y="60" as="targetPoint" />
            <Array as="points">
              <mxPoint x="115" y="60" />
            </Array>
          </mxGeometry>
        </mxCell>
        <mxCell id="981E51eiHKlsOoyIhUvD-85" value="POST(userId)" style="text;strokeColor=none;fillColor=none;align=left;verticalAlign=middle;spacingLeft=4;spacingRight=4;overflow=hidden;points=[[0,0.5],[1,0.5]];portConstraint=eastwest;rotatable=0;whiteSpace=wrap;html=1;" vertex="1" parent="981E51eiHKlsOoyIhUvD-48">
          <mxGeometry y="60" width="150" height="30" as="geometry" />
        </mxCell>
        <mxCell id="981E51eiHKlsOoyIhUvD-86" value="GET(userId, faxId)" style="text;strokeColor=none;fillColor=none;align=left;verticalAlign=middle;spacingLeft=4;spacingRight=4;overflow=hidden;points=[[0,0.5],[1,0.5]];portConstraint=eastwest;rotatable=0;whiteSpace=wrap;html=1;" vertex="1" parent="981E51eiHKlsOoyIhUvD-48">
          <mxGeometry y="90" width="150" height="30" as="geometry" />
        </mxCell>
        <mxCell id="981E51eiHKlsOoyIhUvD-54" value="" style="text;strokeColor=none;fillColor=none;align=left;verticalAlign=middle;spacingLeft=4;spacingRight=4;overflow=hidden;points=[[0,0.5],[1,0.5]];portConstraint=eastwest;rotatable=0;whiteSpace=wrap;html=1;" vertex="1" parent="981E51eiHKlsOoyIhUvD-48">
          <mxGeometry y="120" width="150" as="geometry" />
        </mxCell>
        <mxCell id="981E51eiHKlsOoyIhUvD-58" value="Outbox" style="swimlane;fontStyle=0;childLayout=stackLayout;horizontal=1;startSize=30;horizontalStack=0;resizeParent=1;resizeParentMax=0;resizeLast=0;collapsible=1;marginBottom=0;whiteSpace=wrap;html=1;" vertex="1" parent="1">
          <mxGeometry x="640" y="830" width="150" height="240" as="geometry" />
        </mxCell>
        <mxCell id="981E51eiHKlsOoyIhUvD-59" value="from: string" style="text;strokeColor=none;fillColor=none;align=left;verticalAlign=middle;spacingLeft=4;spacingRight=4;overflow=hidden;points=[[0,0.5],[1,0.5]];portConstraint=eastwest;rotatable=0;whiteSpace=wrap;html=1;" vertex="1" parent="981E51eiHKlsOoyIhUvD-58">
          <mxGeometry y="30" width="150" height="30" as="geometry" />
        </mxCell>
        <mxCell id="981E51eiHKlsOoyIhUvD-60" value="to: string[]" style="text;strokeColor=none;fillColor=none;align=left;verticalAlign=middle;spacingLeft=4;spacingRight=4;overflow=hidden;points=[[0,0.5],[1,0.5]];portConstraint=eastwest;rotatable=0;whiteSpace=wrap;html=1;" vertex="1" parent="981E51eiHKlsOoyIhUvD-58">
          <mxGeometry y="60" width="150" height="30" as="geometry" />
        </mxCell>
        <mxCell id="981E51eiHKlsOoyIhUvD-61" value="expiration_date: string[]" style="text;strokeColor=none;fillColor=none;align=left;verticalAlign=middle;spacingLeft=4;spacingRight=4;overflow=hidden;points=[[0,0.5],[1,0.5]];portConstraint=eastwest;rotatable=0;whiteSpace=wrap;html=1;rounded=0;" vertex="1" parent="981E51eiHKlsOoyIhUvD-58">
          <mxGeometry y="90" width="150" height="30" as="geometry" />
        </mxCell>
        <mxCell id="981E51eiHKlsOoyIhUvD-62" value="return_ids: bool" style="text;strokeColor=none;fillColor=none;align=left;verticalAlign=middle;spacingLeft=4;spacingRight=4;overflow=hidden;points=[[0,0.5],[1,0.5]];portConstraint=eastwest;rotatable=0;whiteSpace=wrap;html=1;" vertex="1" parent="981E51eiHKlsOoyIhUvD-58">
          <mxGeometry y="120" width="150" height="30" as="geometry" />
        </mxCell>
        <mxCell id="981E51eiHKlsOoyIhUvD-102" value="" style="endArrow=none;html=1;rounded=0;exitX=0.006;exitY=0;exitDx=0;exitDy=0;exitPerimeter=0;entryX=0.993;entryY=0.004;entryDx=0;entryDy=0;entryPerimeter=0;" edge="1" parent="981E51eiHKlsOoyIhUvD-58" source="981E51eiHKlsOoyIhUvD-99" target="981E51eiHKlsOoyIhUvD-99">
          <mxGeometry width="50" height="50" relative="1" as="geometry">
            <mxPoint x="495" y="210" as="sourcePoint" />
            <mxPoint x="145" y="130" as="targetPoint" />
            <Array as="points" />
          </mxGeometry>
        </mxCell>
        <mxCell id="981E51eiHKlsOoyIhUvD-99" value="GET(userId, faxId)" style="text;strokeColor=none;fillColor=none;align=left;verticalAlign=middle;spacingLeft=4;spacingRight=4;overflow=hidden;points=[[0,0.5],[1,0.5]];portConstraint=eastwest;rotatable=0;whiteSpace=wrap;html=1;" vertex="1" parent="981E51eiHKlsOoyIhUvD-58">
          <mxGeometry y="150" width="150" height="30" as="geometry" />
        </mxCell>
        <mxCell id="981E51eiHKlsOoyIhUvD-101" value="DELETE(userId, faxId)" style="text;strokeColor=none;fillColor=none;align=left;verticalAlign=middle;spacingLeft=4;spacingRight=4;overflow=hidden;points=[[0,0.5],[1,0.5]];portConstraint=eastwest;rotatable=0;whiteSpace=wrap;html=1;rounded=0;" vertex="1" parent="981E51eiHKlsOoyIhUvD-58">
          <mxGeometry y="180" width="150" height="30" as="geometry" />
        </mxCell>
        <mxCell id="981E51eiHKlsOoyIhUvD-100" value="PUT(userId, faxId)" style="text;strokeColor=none;fillColor=none;align=left;verticalAlign=middle;spacingLeft=4;spacingRight=4;overflow=hidden;points=[[0,0.5],[1,0.5]];portConstraint=eastwest;rotatable=0;whiteSpace=wrap;html=1;" vertex="1" parent="981E51eiHKlsOoyIhUvD-58">
          <mxGeometry y="210" width="150" height="30" as="geometry" />
        </mxCell>
        <mxCell id="981E51eiHKlsOoyIhUvD-64" value="" style="text;strokeColor=none;fillColor=none;align=left;verticalAlign=middle;spacingLeft=4;spacingRight=4;overflow=hidden;points=[[0,0.5],[1,0.5]];portConstraint=eastwest;rotatable=0;whiteSpace=wrap;html=1;" vertex="1" parent="981E51eiHKlsOoyIhUvD-58">
          <mxGeometry y="240" width="150" as="geometry" />
        </mxCell>
        <mxCell id="981E51eiHKlsOoyIhUvD-70" style="edgeStyle=orthogonalEdgeStyle;rounded=0;orthogonalLoop=1;jettySize=auto;html=1;endArrow=none;endFill=0;startArrow=diamondThin;startFill=1;" edge="1" parent="1" source="981E51eiHKlsOoyIhUvD-9" target="981E51eiHKlsOoyIhUvD-35">
          <mxGeometry relative="1" as="geometry" />
        </mxCell>
        <mxCell id="981E51eiHKlsOoyIhUvD-71" value="purchased&amp;nbsp;" style="text;html=1;align=center;verticalAlign=middle;resizable=0;points=[];autosize=1;strokeColor=none;fillColor=none;" vertex="1" parent="1">
          <mxGeometry x="480" y="608" width="80" height="30" as="geometry" />
        </mxCell>
        <mxCell id="981E51eiHKlsOoyIhUvD-72" value="assigned&amp;nbsp;" style="text;html=1;align=center;verticalAlign=middle;resizable=0;points=[];autosize=1;strokeColor=none;fillColor=none;" vertex="1" parent="1">
          <mxGeometry x="495" y="540" width="70" height="30" as="geometry" />
        </mxCell>
        <mxCell id="981E51eiHKlsOoyIhUvD-73" value="1..*" style="text;html=1;align=center;verticalAlign=middle;resizable=0;points=[];autosize=1;strokeColor=none;fillColor=none;" vertex="1" parent="1">
          <mxGeometry x="550" y="550" width="40" height="30" as="geometry" />
        </mxCell>
        <mxCell id="981E51eiHKlsOoyIhUvD-75" value="&amp;lt;&amp;lt;Enumeration&amp;gt;&amp;gt;&lt;br&gt;AccType" style="swimlane;fontStyle=0;childLayout=stackLayout;horizontal=1;startSize=30;horizontalStack=0;resizeParent=1;resizeParentMax=0;resizeLast=0;collapsible=1;marginBottom=0;whiteSpace=wrap;html=1;" vertex="1" parent="1">
          <mxGeometry x="550" y="300" width="140" height="90" as="geometry" />
        </mxCell>
        <mxCell id="981E51eiHKlsOoyIhUvD-76" value="corporate_admin" style="text;strokeColor=none;fillColor=none;align=left;verticalAlign=middle;spacingLeft=4;spacingRight=4;overflow=hidden;points=[[0,0.5],[1,0.5]];portConstraint=eastwest;rotatable=0;whiteSpace=wrap;html=1;" vertex="1" parent="981E51eiHKlsOoyIhUvD-75">
          <mxGeometry y="30" width="140" height="30" as="geometry" />
        </mxCell>
        <mxCell id="981E51eiHKlsOoyIhUvD-78" value="corporate_members" style="text;strokeColor=none;fillColor=none;align=left;verticalAlign=middle;spacingLeft=4;spacingRight=4;overflow=hidden;points=[[0,0.5],[1,0.5]];portConstraint=eastwest;rotatable=0;whiteSpace=wrap;html=1;" vertex="1" parent="981E51eiHKlsOoyIhUvD-75">
          <mxGeometry y="60" width="140" height="30" as="geometry" />
        </mxCell>
        <mxCell id="981E51eiHKlsOoyIhUvD-77" value="" style="text;strokeColor=none;fillColor=none;align=left;verticalAlign=middle;spacingLeft=4;spacingRight=4;overflow=hidden;points=[[0,0.5],[1,0.5]];portConstraint=eastwest;rotatable=0;whiteSpace=wrap;html=1;" vertex="1" parent="981E51eiHKlsOoyIhUvD-75">
          <mxGeometry y="90" width="140" as="geometry" />
        </mxCell>
        <mxCell id="981E51eiHKlsOoyIhUvD-90" value="&amp;lt;&amp;lt;Enumeration&amp;gt;&amp;gt;&lt;br&gt;FileType" style="swimlane;fontStyle=0;childLayout=stackLayout;horizontal=1;startSize=30;horizontalStack=0;resizeParent=1;resizeParentMax=0;resizeLast=0;collapsible=1;marginBottom=0;whiteSpace=wrap;html=1;" vertex="1" parent="1">
          <mxGeometry x="55" y="400" width="140" height="90" as="geometry" />
        </mxCell>
        <mxCell id="981E51eiHKlsOoyIhUvD-91" value="tiff" style="text;strokeColor=none;fillColor=none;align=left;verticalAlign=middle;spacingLeft=4;spacingRight=4;overflow=hidden;points=[[0,0.5],[1,0.5]];portConstraint=eastwest;rotatable=0;whiteSpace=wrap;html=1;" vertex="1" parent="981E51eiHKlsOoyIhUvD-90">
          <mxGeometry y="30" width="140" height="30" as="geometry" />
        </mxCell>
        <mxCell id="981E51eiHKlsOoyIhUvD-92" value="pdf" style="text;strokeColor=none;fillColor=none;align=left;verticalAlign=middle;spacingLeft=4;spacingRight=4;overflow=hidden;points=[[0,0.5],[1,0.5]];portConstraint=eastwest;rotatable=0;whiteSpace=wrap;html=1;" vertex="1" parent="981E51eiHKlsOoyIhUvD-90">
          <mxGeometry y="60" width="140" height="30" as="geometry" />
        </mxCell>
        <mxCell id="981E51eiHKlsOoyIhUvD-93" value="" style="text;strokeColor=none;fillColor=none;align=left;verticalAlign=middle;spacingLeft=4;spacingRight=4;overflow=hidden;points=[[0,0.5],[1,0.5]];portConstraint=eastwest;rotatable=0;whiteSpace=wrap;html=1;" vertex="1" parent="981E51eiHKlsOoyIhUvD-90">
          <mxGeometry y="90" width="140" as="geometry" />
        </mxCell>
        <mxCell id="981E51eiHKlsOoyIhUvD-135" style="edgeStyle=orthogonalEdgeStyle;rounded=0;orthogonalLoop=1;jettySize=auto;html=1;entryX=-0.001;entryY=0.022;entryDx=0;entryDy=0;entryPerimeter=0;endArrow=classic;endFill=1;" edge="1" parent="1" source="981E51eiHKlsOoyIhUvD-110" target="981E51eiHKlsOoyIhUvD-40">
          <mxGeometry relative="1" as="geometry">
            <Array as="points">
              <mxPoint x="165" y="880" />
              <mxPoint x="300" y="880" />
              <mxPoint x="300" y="841" />
            </Array>
          </mxGeometry>
        </mxCell>
        <mxCell id="981E51eiHKlsOoyIhUvD-110" value="Sent" style="swimlane;fontStyle=0;childLayout=stackLayout;horizontal=1;startSize=30;horizontalStack=0;resizeParent=1;resizeParentMax=0;resizeLast=0;collapsible=1;marginBottom=0;whiteSpace=wrap;html=1;" vertex="1" collapsed="1" parent="1">
          <mxGeometry x="90" y="800" width="70" height="30" as="geometry">
            <mxRectangle x="90" y="800" width="150" height="30" as="alternateBounds" />
          </mxGeometry>
        </mxCell>
        <mxCell id="981E51eiHKlsOoyIhUvD-116" value="" style="text;strokeColor=none;fillColor=none;align=left;verticalAlign=middle;spacingLeft=4;spacingRight=4;overflow=hidden;points=[[0,0.5],[1,0.5]];portConstraint=eastwest;rotatable=0;whiteSpace=wrap;html=1;" vertex="1" parent="981E51eiHKlsOoyIhUvD-110">
          <mxGeometry y="30" width="150" as="geometry" />
        </mxCell>
        <mxCell id="981E51eiHKlsOoyIhUvD-117" value="" style="endArrow=none;html=1;rounded=0;entryX=0.993;entryY=1.104;entryDx=0;entryDy=0;entryPerimeter=0;" edge="1" parent="981E51eiHKlsOoyIhUvD-110">
          <mxGeometry width="50" height="50" relative="1" as="geometry">
            <mxPoint x="150" y="62.951318458417745" as="sourcePoint" />
            <mxPoint x="148.95000000000005" y="63.11999999999989" as="targetPoint" />
          </mxGeometry>
        </mxCell>
        <mxCell id="981E51eiHKlsOoyIhUvD-137" style="edgeStyle=orthogonalEdgeStyle;rounded=0;orthogonalLoop=1;jettySize=auto;html=1;endArrow=none;endFill=0;" edge="1" parent="1" source="981E51eiHKlsOoyIhUvD-121">
          <mxGeometry relative="1" as="geometry">
            <mxPoint x="270" y="880" as="targetPoint" />
          </mxGeometry>
        </mxCell>
        <mxCell id="981E51eiHKlsOoyIhUvD-121" value="Inbox" style="swimlane;fontStyle=0;childLayout=stackLayout;horizontal=1;startSize=30;horizontalStack=0;resizeParent=1;resizeParentMax=0;resizeLast=0;collapsible=1;marginBottom=0;whiteSpace=wrap;html=1;" vertex="1" collapsed="1" parent="1">
          <mxGeometry x="290" y="1000" width="70" height="30" as="geometry">
            <mxRectangle x="290" y="1000" width="150" height="30" as="alternateBounds" />
          </mxGeometry>
        </mxCell>
        <mxCell id="981E51eiHKlsOoyIhUvD-126" value="" style="text;strokeColor=none;fillColor=none;align=left;verticalAlign=middle;spacingLeft=4;spacingRight=4;overflow=hidden;points=[[0,0.5],[1,0.5]];portConstraint=eastwest;rotatable=0;whiteSpace=wrap;html=1;" vertex="1" parent="981E51eiHKlsOoyIhUvD-121">
          <mxGeometry y="30" width="150" as="geometry" />
        </mxCell>
        <mxCell id="981E51eiHKlsOoyIhUvD-127" value="" style="endArrow=none;html=1;rounded=0;entryX=0.993;entryY=1.104;entryDx=0;entryDy=0;entryPerimeter=0;" edge="1" parent="981E51eiHKlsOoyIhUvD-121">
          <mxGeometry width="50" height="50" relative="1" as="geometry">
            <mxPoint x="150" y="62.951318458417745" as="sourcePoint" />
            <mxPoint x="148.95000000000005" y="63.12000000000012" as="targetPoint" />
          </mxGeometry>
        </mxCell>
        <mxCell id="981E51eiHKlsOoyIhUvD-136" style="edgeStyle=orthogonalEdgeStyle;rounded=0;orthogonalLoop=1;jettySize=auto;html=1;endArrow=none;endFill=0;" edge="1" parent="1" source="981E51eiHKlsOoyIhUvD-129">
          <mxGeometry relative="1" as="geometry">
            <mxPoint x="240" y="880" as="targetPoint" />
            <Array as="points">
              <mxPoint x="210" y="880" />
            </Array>
          </mxGeometry>
        </mxCell>
        <mxCell id="981E51eiHKlsOoyIhUvD-129" value="Spam" style="swimlane;fontStyle=0;childLayout=stackLayout;horizontal=1;startSize=30;horizontalStack=0;resizeParent=1;resizeParentMax=0;resizeLast=0;collapsible=1;marginBottom=0;whiteSpace=wrap;html=1;" vertex="1" collapsed="1" parent="1">
          <mxGeometry x="80" y="940" width="70" height="30" as="geometry">
            <mxRectangle x="80" y="940" width="150" height="30" as="alternateBounds" />
          </mxGeometry>
        </mxCell>
        <mxCell id="981E51eiHKlsOoyIhUvD-131" value="" style="text;strokeColor=none;fillColor=none;align=left;verticalAlign=middle;spacingLeft=4;spacingRight=4;overflow=hidden;points=[[0,0.5],[1,0.5]];portConstraint=eastwest;rotatable=0;whiteSpace=wrap;html=1;" vertex="1" parent="981E51eiHKlsOoyIhUvD-129">
          <mxGeometry y="30" width="150" as="geometry" />
        </mxCell>
        <mxCell id="981E51eiHKlsOoyIhUvD-132" value="" style="endArrow=none;html=1;rounded=0;entryX=0.993;entryY=1.104;entryDx=0;entryDy=0;entryPerimeter=0;" edge="1" parent="981E51eiHKlsOoyIhUvD-129">
          <mxGeometry width="50" height="50" relative="1" as="geometry">
            <mxPoint x="150" y="62.951318458417745" as="sourcePoint" />
            <mxPoint x="148.95000000000005" y="63.12000000000012" as="targetPoint" />
          </mxGeometry>
        </mxCell>
        <mxCell id="981E51eiHKlsOoyIhUvD-160" style="edgeStyle=orthogonalEdgeStyle;rounded=0;orthogonalLoop=1;jettySize=auto;html=1;endArrow=none;endFill=0;" edge="1" parent="1" source="981E51eiHKlsOoyIhUvD-140">
          <mxGeometry relative="1" as="geometry">
            <mxPoint x="300" y="880" as="targetPoint" />
          </mxGeometry>
        </mxCell>
        <mxCell id="981E51eiHKlsOoyIhUvD-140" value="Draft" style="swimlane;fontStyle=0;childLayout=stackLayout;horizontal=1;startSize=30;horizontalStack=0;resizeParent=1;resizeParentMax=0;resizeLast=0;collapsible=1;marginBottom=0;whiteSpace=wrap;html=1;" vertex="1" collapsed="1" parent="1">
          <mxGeometry x="370" y="940" width="70" height="30" as="geometry">
            <mxRectangle x="370" y="940" width="160" height="30" as="alternateBounds" />
          </mxGeometry>
        </mxCell>
        <mxCell id="981E51eiHKlsOoyIhUvD-142" value="" style="text;strokeColor=none;fillColor=none;align=left;verticalAlign=middle;spacingLeft=4;spacingRight=4;overflow=hidden;points=[[0,0.5],[1,0.5]];portConstraint=eastwest;rotatable=0;whiteSpace=wrap;html=1;" vertex="1" parent="981E51eiHKlsOoyIhUvD-140">
          <mxGeometry y="30" width="160" as="geometry" />
        </mxCell>
        <mxCell id="981E51eiHKlsOoyIhUvD-143" value="" style="endArrow=none;html=1;rounded=0;entryX=0.993;entryY=1.104;entryDx=0;entryDy=0;entryPerimeter=0;" edge="1" parent="981E51eiHKlsOoyIhUvD-140">
          <mxGeometry width="50" height="50" relative="1" as="geometry">
            <mxPoint x="150" y="62.951318458417745" as="sourcePoint" />
            <mxPoint x="148.95000000000005" y="63.11999999999989" as="targetPoint" />
          </mxGeometry>
        </mxCell>
        <mxCell id="981E51eiHKlsOoyIhUvD-146" style="edgeStyle=orthogonalEdgeStyle;rounded=0;orthogonalLoop=1;jettySize=auto;html=1;entryX=-0.021;entryY=0.311;entryDx=0;entryDy=0;entryPerimeter=0;exitX=1;exitY=0.5;exitDx=0;exitDy=0;endArrow=diamondThin;endFill=1;" edge="1" parent="1" source="981E51eiHKlsOoyIhUvD-140" target="981E51eiHKlsOoyIhUvD-100">
          <mxGeometry relative="1" as="geometry">
            <mxPoint x="562.1000000000001" y="956" as="sourcePoint" />
          </mxGeometry>
        </mxCell>
        <mxCell id="981E51eiHKlsOoyIhUvD-148" value="Send" style="swimlane;fontStyle=0;childLayout=stackLayout;horizontal=1;startSize=30;horizontalStack=0;resizeParent=1;resizeParentMax=0;resizeLast=0;collapsible=1;marginBottom=0;whiteSpace=wrap;html=1;" vertex="1" parent="1">
          <mxGeometry x="495" y="740" width="105" height="60" as="geometry" />
        </mxCell>
        <mxCell id="981E51eiHKlsOoyIhUvD-150" value="pages: number" style="text;strokeColor=none;fillColor=none;align=left;verticalAlign=middle;spacingLeft=4;spacingRight=4;overflow=hidden;points=[[0,0.5],[1,0.5]];portConstraint=eastwest;rotatable=0;whiteSpace=wrap;html=1;" vertex="1" parent="981E51eiHKlsOoyIhUvD-148">
          <mxGeometry y="30" width="105" height="30" as="geometry" />
        </mxCell>
        <mxCell id="981E51eiHKlsOoyIhUvD-151" value="" style="text;strokeColor=none;fillColor=none;align=left;verticalAlign=middle;spacingLeft=4;spacingRight=4;overflow=hidden;points=[[0,0.5],[1,0.5]];portConstraint=eastwest;rotatable=0;whiteSpace=wrap;html=1;" vertex="1" parent="981E51eiHKlsOoyIhUvD-148">
          <mxGeometry y="60" width="105" as="geometry" />
        </mxCell>
        <mxCell id="981E51eiHKlsOoyIhUvD-154" style="edgeStyle=orthogonalEdgeStyle;rounded=0;orthogonalLoop=1;jettySize=auto;html=1;entryX=0.806;entryY=0;entryDx=0;entryDy=0;entryPerimeter=0;endArrow=none;endFill=0;" edge="1" parent="1" source="981E51eiHKlsOoyIhUvD-148" target="981E51eiHKlsOoyIhUvD-12">
          <mxGeometry relative="1" as="geometry">
            <Array as="points">
              <mxPoint x="540" y="670" />
              <mxPoint x="443" y="670" />
            </Array>
          </mxGeometry>
        </mxCell>
        <mxCell id="981E51eiHKlsOoyIhUvD-155" style="edgeStyle=orthogonalEdgeStyle;rounded=0;orthogonalLoop=1;jettySize=auto;html=1;entryX=0.52;entryY=-0.029;entryDx=0;entryDy=0;entryPerimeter=0;endArrow=none;endFill=0;" edge="1" parent="1" source="981E51eiHKlsOoyIhUvD-148" target="981E51eiHKlsOoyIhUvD-140">
          <mxGeometry relative="1" as="geometry">
            <Array as="points">
              <mxPoint x="548" y="870" />
              <mxPoint x="548" y="870" />
              <mxPoint x="548" y="920" />
              <mxPoint x="406" y="920" />
            </Array>
          </mxGeometry>
        </mxCell>
        <mxCell id="981E51eiHKlsOoyIhUvD-156" value="1..*" style="text;html=1;align=center;verticalAlign=middle;resizable=0;points=[];autosize=1;strokeColor=none;fillColor=none;" vertex="1" parent="1">
          <mxGeometry x="120" y="710" width="40" height="30" as="geometry" />
        </mxCell>
        <mxCell id="981E51eiHKlsOoyIhUvD-161" value="1..*" style="text;html=1;align=center;verticalAlign=middle;resizable=0;points=[];autosize=1;strokeColor=none;fillColor=none;" vertex="1" parent="1">
          <mxGeometry x="440" y="620" width="40" height="30" as="geometry" />
        </mxCell>
        <mxCell id="981E51eiHKlsOoyIhUvD-162" value="1..*" style="text;html=1;align=center;verticalAlign=middle;resizable=0;points=[];autosize=1;strokeColor=none;fillColor=none;" vertex="1" parent="1">
          <mxGeometry x="540" y="710" width="40" height="30" as="geometry" />
        </mxCell>
      </root>
    </mxGraphModel>
  </diagram>
</mxfile>
